<svg viewBox="0 0 32 32" xmlns="http://www.w3.org/2000/svg"><path d="m16 3c-3.09375 0-5.492187 4.578125-5.921875 10.9375.554688.589844 1.207031 1.175781 1.929688 1.746094.007812-.664063.046875-1.296875.101562-1.917969.582031-.402344 1.3125-.894531 1.890625-1.230469 2.660156-1.535156 5.398438-2.546875 7.707031-2.847656.453125-.058594.878907-.085937 1.265625-.085937 1.296875 0 2.214844.3125 2.554688.898437.304687.53125.167969 1.375-.34375 2.363281.523437.484375 1.019531.976563 1.460937 1.472657 1.125-1.863282 1.355469-3.554688.613282-4.835938-.882813-1.527344-2.941407-2.167969-5.804688-1.796875-2.566406.332031-5.566406 1.433594-8.453125 3.101563-.183594.105468-.355469.222656-.535156.335937.71875-3.699219 2.179687-6.140625 3.535156-6.140625.632813 0 1.289063.539063 1.882813 1.476563.679687-.210938 1.351562-.394532 2.003906-.53125-1.035156-1.855469-2.378906-2.945313-3.886719-2.945313zm-6.78125 4.613281c-2.167969-.039062-3.738281.609375-4.476562 1.886719-.804688 1.390625-.46875 3.257813.914062 5.308594.125.191406.261719.394531.433594.617187 1.570312 2.054688 4.023437 4.101563 6.910156 5.769532.183594.105468.375.199218.5625.304687-1.144531.394531-2.253906.679688-3.273437.8125-1.949219.253906-3.375-.050781-3.8125-.8125-.308594-.53125-.171875-1.375.339843-2.363281-.523437-.484375-1.019531-.976563-1.464843-1.46875-1.121094 1.859375-1.351563 3.550781-.609375 4.832031.71875 1.246094 2.21875 1.902344 4.296875 1.902344.472656 0 .980468-.035156 1.507812-.105469.304688-.039062.609375-.089844.921875-.152344l.21875-.046875c.015625 0 .027344-.003906.042969-.007812.53125-.113281 1.117187-.269531 1.789062-.480469l.660157-.203125c.980468-.335937 1.984375-.753906 2.988281-1.242187.21875-.726563.414062-1.574219.5625-2.550782-.578125.324219-1.160156.617188-1.738281.890625-.667969-.3125-1.339844-.660156-1.992188-1.039062-2.664062-1.539063-4.910156-3.402344-6.320312-5.25-1.195313-1.566406-1.644532-2.953125-1.203125-3.714844.300781-.523437 1.097656-.820312 2.195312-.875.15625-.707031.335938-1.378906.546875-2.011719zm11.523438 4.285157c-.789063.183593-1.625.453125-2.480469.792968.566406.335938 1.105469.695313 1.628906 1.054688.0625.726562.109375 1.46875.109375 2.253906 0 5.898438-1.855469 10.398438-3.640625 10.941406-.121094.039063-.246094.058594-.359375.058594-.632812 0-1.289062-.535156-1.882812-1.480469-.679688.214844-1.351563.398438-2.003907.535157 1.035157 1.855468 2.378907 2.945312 3.886719 2.945312.199219 0 .390625-.019531.578125-.058594 3.128906-.59375 5.421875-5.953125 5.421875-12.941406 0-.214844-.015625-.421875-.019531-.636719.914062.792969 1.71875 1.609375 2.34375 2.421875 1.191406 1.566407 1.640625 2.953125 1.203125 3.714844-.308594.527344-1.09375.832031-2.199219.886719-.15625.699219-.332031 1.375-.542969 2.003906.054688 0 .121094.011719.175782.011719 2.078125 0 3.578125-.65625 4.296875-1.902344.882812-1.527344.40625-3.632812-1.347657-5.925781-1.242187-1.625-3.042968-3.242188-5.167968-4.675781zm-4.742188 2.101562c-1.105469 0-2 .894531-2 2s.894531 2 2 2 2-.894531 2-2-.894531-2-2-2z"/></svg>